<mxfile host="app.diagrams.net" modified="2024-01-17T09:54:06.338Z" agent="Mozilla/5.0 (Windows NT 10.0; Win64; x64) AppleWebKit/537.36 (KHTML, like Gecko) Chrome/120.0.0.0 Safari/537.36" version="22.1.20" etag="utgvLi77whyOyeH4wFHV" type="github">
  <diagram name="Sida-1" id="nbRmR0jpUQ-_nqsj8L1X">
    <mxGraphModel>
      <root>
        <mxCell id="0" />
        <mxCell id="1" parent="0" />
      </root>
    </mxGraphModel>
  </diagram>
</mxfile>
